<svg
  xmlns="http://www.w3.org/2000/svg"
  xmlns:xlink="http://www.w3.org/1999/xlink"
  width="181"
  height="103"
  stroke="#000"
  stroke-linecap="round"
  stroke-linejoin="round"
  fill="#fff"
  fill-rule="evenodd"
><path d="M31.151 6.93h35.0298v30.5426H31.151z" /><rect
    height="35.3651"
    rx="3"
    width="8.7574"
    x="22.3936"
    y="5.3225"
  /><path d="M22.3936.5h43.7872v8.0375H22.3936z" /><path
    d="M66.1808 6.93h35.0298v30.5426H66.1808z"
  /><path d="M66.1808.5h35.0298v8.0375H66.1808z" /><rect
    height="64.3002"
    rx="3"
    width="35.0298"
    x="136.2404"
    y="6.93"
  /><rect height="35.3651" rx="3" width="8.7574" x="171.2701" y="5.3225" /><path
    d="M136.2404.5h43.7872v8.0375h-43.7872z"
  /><use xlink:href="#B" /><use xlink:href="#B" x="-37.8322" /><path
    d="M166.3361 32.1848c.0965-.0513.2-.0621.3007-.0329.4484.1316 1.8506.4982 3.5271.4982s3.0789-.3666 3.5276-.4982c.1007-.0292.2039-.0184.3005.0329l.488.2563c.2383.1254.5021.0064.6585-.297s.171-.7159.0417-1.0422c-.0976-.246-.1131-.5481-.041-.8141.2164-.8047.6376-2.9667.6376-7.6041s-.4212-6.7996-.6376-7.6043c-.0721-.2662-.0566-.5681.041-.814.1293-.3264.1129-.7421-.0417-1.0418s-.4202-.4225-.6585-.2974l-.488.2567c-.0966.0506-.1998.0619-.3005.0324-.4487-.1315-1.8506-.4981-3.5276-.4981s-3.0787.3666-3.5271.4981c-.1007.0295-.2042.0184-.3007-.0324l-.4879-.2567c-.2387-.1251-.5023-.006-.6588.2974s-.1711.7154-.0416 1.0418c.0975.2459.113.5478.0412.814-.2166.8047-.6378 2.9673-.6378 7.6043s.4212 6.7994.6378 7.6041c.0718.2662.0563.5681-.0412.8141-.1295.3263-.1127.7422.0416 1.0422s.4201.4224.6588.297zM101.2106 6.93h35.0298v30.5426h-35.0298z"
  /><path d="M101.2106.5h35.0298v8.0375h-35.0298z" /><use
    xlink:href="#B"
    x="35.0297"
  /><rect
    height="30.5426"
    rx="3"
    width="35.0298"
    x="136.2404"
    y="71.2302"
  /><path d="M6.8054 92.9316V63.9965h29.9504v28.9351z" /><rect
    height="34.6795"
    rx="3"
    width="7.2338"
    transform="matrix(0 -1 1 0 5.2291 63.9964)"
  /><rect
    height="34.6795"
    rx="3"
    width="7.2338"
    transform="matrix(0 -1 1 0 5.2291 100.1653)"
  /><path d="M.5 100.1653V56.7627h7.8817v43.4026z" /><defs><path
      id="B"
      d="M96.7848 14.1409c-.0627-.1002-.0762-.2076-.0403-.3117.1622-.4652.6126-1.9177.6126-3.6551s-.4504-3.1901-.6126-3.6553c-.0359-.1041-.0224-.2114.0403-.3114l.3155-.5059c.1541-.2466.0078-.52-.366-.682-.3687-.1601-.8802-.1774-1.2816-.0434-.3025.101-.674.1168-1.0011.0427-.99-.224-3.65-.6608-9.3548-.6608s-8.3643.4368-9.3542.6608c-.3273.0741-.6992.0583-1.0013-.0427-.4017-.134-.9133-.1167-1.2821.0434s-.5194.4354-.3652.682l.3154.5059c.0627.1.076.2073.0399.3114-.1615.4652-.6128 1.9178-.6128 3.6553s.4513 3.1899.6128 3.6551c.0361.1041.0228.2115-.0399.3117l-.3154.5057c-.1542.2467-.0076.52.3652.6819s.8804.1775 1.2821.0434c.3021-.101.674-.1168 1.0013-.0426.9899.2242 3.6499.6606 9.3542.6606s8.3648-.4364 9.3548-.6606c.3271-.0742.6986-.0584 1.0011.0426.4014.1341.9129.1168 1.2816-.0434.3738-.1619.5201-.4352.3662-.6819zm0 0"
    /></defs></svg>
