<svg xmlns="http://www.w3.org/2000/svg" xmlns:xlink="http://www.w3.org/1999/xlink" width="71" height="54" stroke="#000" stroke-linecap="round" stroke-linejoin="round" fill="#fff" fill-rule="evenodd"><rect height="41.1465" rx="3" width="12.6732" x="57.748" y="8.0574"/><rect height="44.5054" rx="5" width="49.8189" x="10.9882" y="8.0574"/><rect height="41.1465" rx="3" width="13.5472" x=".5" y="8.0574"/><path d="M55.5767 17.4494c-.1037-.1735-.1259-.3595-.0664-.5399.2679-.8058 1.0144-3.3222 1.0144-6.3327s-.7465-5.5271-1.0144-6.3331c-.0595-.1802-.0373-.3662.0664-.5397l.522-.8759c.2552-.4279.0129-.9016-.6049-1.1821-.6103-.2771-1.4568-.3072-2.1216-.0748-.5006.1747-1.1157.2025-1.657.0739C50.0766 1.2565 45.6741.5 36.2327.5s-13.8437.7565-15.4823 1.1451c-.5417.1286-1.1567.1008-1.6571-.0739-.6647-.2324-1.5112-.2023-2.1215.0748-.6178.2805-.8602.7542-.6053 1.1821l.5224.8759c.1034.1735.1259.3595.0664.5397-.268.806-1.0144 3.3225-1.0144 6.3331s.7464 5.5269 1.0144 6.3327c.0595.1804.0373.3664-.0664.5399l-.5224.8761c-.2549.4276-.0125.9014.6053 1.1821.6103.277 1.4568.3069 2.1215.0747.5004-.1748 1.1154-.2024 1.6571-.0739 1.6386.3885 6.041 1.1449 15.4823 1.1449s13.8439-.7564 15.4825-1.1449c.5417-.1285 1.1564-.1009 1.657.0739.6648.2322 1.5113.2023 2.1216-.0747.6178-.2807.8601-.7545.6054-1.1821zm0 0"/><use xlink:href="#B"/><use xlink:href="#B" x="45.4488"/><defs ><path id="B" d="M16.909 21.112c-.1055.0581-.2183.0706-.3278.0372-.4895-.1501-2.0172-.5685-3.845-.5685s-3.3558.4184-3.8451.5685c-.1095.0334-.2224.0209-.3278-.0372l-.5318-.2926c-.2598-.143-.5472-.0071-.7177.3391s-.1865.8166-.0455 1.1889c.1061.2806.1229.6255.0448.9288-.2357.9183-.6951 3.3857-.6951 8.6771s.4594 7.7588.6951 8.6771c.0781.3036.0613.6482-.0448.9288-.141.3725-.1228.8469.0455 1.1889s.4579.4823.7177.3393l.5318-.2928c.1054-.0579.2183-.0706.3278-.037.4893.15 2.0173.5683 3.8451.5683s3.3555-.4183 3.845-.5683c.1095-.0336.2223-.0211.3278.037l.532.2928c.2595.143.5472.007.7174-.3393s.1865-.8164.0456-1.1889c-.1062-.2806-.1229-.6252-.045-.9288.2359-.9183.6954-3.3857.6954-8.6771s-.4595-7.7588-.6954-8.6771c-.0779-.3035-.0612-.6482.045-.9288.1409-.3723.1228-.8469-.0456-1.1889s-.4579-.4821-.7174-.3393zm0 0"/></defs></svg>