<svg
  xmlns="http://www.w3.org/2000/svg"
  xmlns:xlink="http://www.w3.org/1999/xlink"
  width="96"
  height="49"
  stroke="#000"
  stroke-linecap="round"
  stroke-linejoin="round"
  fill="#fff"
  fill-rule="evenodd"
><path d="M9.9488 8.0591h37.7953v35.9055H9.9488z" /><rect
    height="41.5748"
    rx="3"
    width="9.4488"
    x=".5"
    y="6.1693"
  /><path d="M.5.5h47.2441v9.4488H.5z" /><path
    d="M47.7441 8.0591h37.7953v35.9055H47.7441z"
  /><path d="M47.7441.5h47.2441v9.4488H47.7441z" /><rect
    height="41.5748"
    rx="3"
    width="9.4488"
    x="85.5394"
    y="6.1693"
  /><use xlink:href="#B" /><use xlink:href="#B" x="-40.8189" /><defs><path
      id="B"
      d="M80.7638 16.5359c-.0675-.1177-.0821-.2437-.0431-.3662.1746-.5468.661-2.2543.661-4.297s-.4864-3.7502-.661-4.297c-.039-.1224-.0244-.2485.0431-.3664l.3405-.5943c.1664-.2903.0084-.6117-.3946-.802-.3978-.188-.9496-.2083-1.383-.0508-.3261.1186-.7272.1373-1.08.0502-1.0682-.2637-3.9382-.777-10.093-.777s-9.025.5133-10.093.777c-.3532.0871-.7541.0684-1.0804-.0502-.4336-.1575-.9853-.1372-1.383.0508-.4028.1903-.5608.5117-.3946.802l.3404.5943c.0676.1179.0823.244.0434.3664-.1748.5468-.6613 2.2543-.6613 4.297s.4865 3.7502.6613 4.297c.0389.1225.0242.2485-.0434.3662l-.3404.5945c-.1662.2903-.0082.6118.3946.802.3977.1883.9494.2084 1.383.0508.3263-.1185.7272-.1374 1.0804-.05 1.068.2635 3.938.7768 10.093.7768s9.0248-.5133 10.093-.7768c.353-.0874.7539-.0685 1.08.05.4334.1576.9852.1375 1.383-.0508.403-.1902.561-.5117.3949-.802zm0 0"
    /></defs></svg>
