<svg
  xmlns="http://www.w3.org/2000/svg"
  width="200"
  height="114"
  stroke="#000"
  stroke-linecap="round"
  stroke-linejoin="round"
  fill="#fff"
  fill-rule="evenodd"
><rect height="38.0122" rx="3" width="40.4949" x="26.8217" y="8.5026" /><rect
    height="44.0141"
    rx="3"
    width="10.1237"
    x="16.698"
    y="6.5019"
  /><path d="M16.698.5h50.6187v10.0032H16.698z" /><rect
    height="38.0122"
    rx="3"
    width="40.4949"
    x="67.3166"
    y="8.5026"
  /><path d="M67.3166.5h40.4949v10.0032H67.3166z" /><rect
    height="38.0122"
    rx="3"
    width="40.4949"
    x="148.3065"
    y="8.5026"
  /><rect
    height="44.0141"
    rx="3"
    width="10.1237"
    x="188.8015"
    y="6.5019"
  /><path
    d="M148.3065.5h50.6187v10.0032h-50.6187zM34.616 15.1587c-.1261.0717-.261.087-.3923.046-.5859-.1849-2.4154-.7002-4.6037-.7002s-4.0182.5153-4.6042.7002c-.1312.041-.266.0257-.3923-.046l-.6369-.3604c-.3111-.1759-.6554-.0086-.8594.4177-.2015.4212-.223 1.0054-.0544 1.4642.1273.3454.1472.7701.054 1.1437-.2827 1.1308-.8326 4.1691-.8326 10.6851s.5499 9.5543.8326 10.6851c.0932.3739.0733.7983-.054 1.1438-.1686.4588-.1471 1.0429.0544 1.4641.204.4263.5483.5937.8594.4179l.6369-.3606c.1263-.0714.2611-.0871.3923-.0459.586.1849 2.4156.7001 4.6042.7001s4.0178-.5152 4.6037-.7001c.1313-.0412.2662-.0258.3923.0459l.6371.3606c.3111.1758.6553.0084.8594-.4179.2015-.4212.2233-1.0053.0543-1.4641-.1271-.3455-.1472-.7699-.0536-1.1438.2823-1.1308.8322-4.169.8322-10.6851s-.5499-9.5543-.8322-10.6851c-.0936-.3739-.0735-.7983.0536-1.1437.169-.4588.1472-1.043-.0543-1.4642-.2041-.4263-.5483-.5936-.8594-.4179zm148.4815 24.7745c.1118-.0633.2315-.077.3476-.0404.5187.1636 2.1393.6201 4.0778.6201s3.5588-.4565 4.0779-.6201c.1162-.0366.2359-.0229.3472.0404l.5643.3192c.2757.1561.5803.0079.7609-.3698s.1978-.8906.0482-1.2968c-.1124-.306-.1302-.6821-.0475-1.013.2503-1.0015.7374-3.6928.7374-9.4639s-.4871-8.4625-.7374-9.4641c-.0827-.3311-.0649-.707.0475-1.013.1496-.4063.1302-.9238-.0482-1.2968s-.4852-.5259-.7609-.3699l-.5643.3191c-.1113.0633-.231.077-.3472.0406-.5191-.1639-2.1393-.62-4.0779-.62s-3.5591.4561-4.0778.62c-.1161.0364-.2358.0229-.3476-.0406l-.5639-.3191c-.2756-.156-.5807-.0078-.7613.3699s-.1978.8905-.0482 1.2968c.1124.306.1304.6819.0474 1.013-.25 1.0016-.7372 3.6927-.7372 9.4641s.4872 8.4624.7372 9.4639c.083.3311.065.707-.0474 1.013-.1496.4062-.1304.9239.0482 1.2968s.4857.5259.7613.3701zm0 0"
  /><rect
    height="38.0122"
    rx="3"
    width="40.4949"
    x="107.8116"
    y="8.5026"
  /><path d="M107.8116.5h40.4949v10.0032h-40.4949z" /><path
    d="M143.1899 17.4769c-.0725-.1246-.0879-.2584-.0464-.3877.1872-.579.7087-2.3868.7087-4.5493s-.5215-3.9701-.7087-4.5492c-.0415-.1295-.0261-.2629.0464-.3877l.3646-.6291c.1783-.3074.009-.6476-.4223-.8491s-1.0178-.2206-1.4822-.0539c-.3492.1255-.7793.1454-1.1574.053-1.1445-.2789-4.2191-.8224-10.8137-.8224s-9.6697.5435-10.8142.8224c-.3781.0924-.8077.0725-1.1572-.053-.4642-.1667-1.0557-.1452-1.4819.0539-.4313.2015-.601.5417-.4228.8491l.3651.6291c.0719.1248.088.2582.0463.3877-.1872.5791-.7086 2.3867-.7086 4.5492s.5214 3.9703.7086 4.5493c.0417.1293.0259.2631-.0463.3877l-.3651.6293c-.1782.3074-.0085.6475.4228.8491.4262.1991 1.0177.2206 1.4819.0536.3495-.1256.7791-.1454 1.1572-.0531 1.1445.2792 4.2196.8227 10.8142.8227s9.6692-.5435 10.8137-.8227c.3784-.0923.8082-.0725 1.1574.0531.4644.167 1.0558.1455 1.4822-.0536s.6006-.5417.4226-.8491zm5.1166 33.4392c0-1.3299 1.0837-2.4007 2.4297-2.4007h35.6357c1.346 0 2.4297 1.0708 2.4297 2.4007v47.2152c0 1.33-3.6448 12.0038-19.4376 14.2045h0c-17.8181-.4-21.0575-12.8745-21.0575-14.2045z"
  /><ellipse cx="22.7722" cy="90.5289" rx="22.2722" ry="22.0071" /></svg>
