<svg
  xmlns="http://www.w3.org/2000/svg"
  width="281"
  height="155"
  stroke="#000"
  stroke-linecap="round"
  stroke-linejoin="round"
  fill="#fff"
  fill-rule="evenodd"
><path
    d="M50.3547 6.4826H95.224v32.4056H50.3547zm67.3039 0h44.8693v32.4056h-44.8693zm64.8112 0h44.8693v32.4056h-44.8693zM5.4854 96.2211V51.3518H37.891v44.8693zm44.8693 19.9419H95.224v32.4056H50.3547zm67.3039 0h44.8693v32.4056h-44.8693zm64.8112 0h44.8693v32.4056h-44.8693zm62.3183-19.9419V51.3518h32.4056v44.8693z"
  /><path d="M32.9056 26.4245h214.3753v99.7095H32.9056z" /><rect
    height="9.9709"
    rx="3"
    width="44.8693"
    x="50.3547"
    y=".5"
  /><rect height="9.9709" rx="3" width="44.8693" x="117.6586" y=".5" /><rect
    height="9.9709"
    rx="3"
    width="44.8693"
    x="182.4698"
    y=".5"
  /><rect
    height="9.9709"
    rx="3"
    width="44.8693"
    x="182.4698"
    y="143.5831"
  /><rect
    height="9.9709"
    rx="3"
    width="44.8693"
    x="117.6586"
    y="143.5831"
  /><rect
    height="9.9709"
    rx="3"
    width="44.8693"
    x="50.3547"
    y="143.5831"
  /><rect
    height="9.9709"
    rx="3"
    width="44.8693"
    transform="matrix(0 1 -1 0 280.185 51.3519)"
  /><rect
    height="9.9709"
    rx="3"
    width="44.8693"
    transform="matrix(0 1 -1 0 10.4709 51.3519)"
  /></svg>
