<svg
  xmlns="http://www.w3.org/2000/svg"
  width="311"
  height="155"
  stroke="#000"
  stroke-linecap="round"
  stroke-linejoin="round"
  fill="#fff"
  fill-rule="evenodd"
><path
    d="M246.1543 119.2756h44.8693v32.4056h-44.8693zm0-113.3858h44.8693v32.4056h-44.8693zm-196.2996.5928H94.724v32.4056H49.8547zm67.3039 0h44.8693v32.4056h-44.8693zm64.8112 0h44.8693v32.4056h-44.8693zM49.8547 116.163H94.724v32.4056H49.8547zm67.3039 0h44.8693v32.4056h-44.8693zm64.8112 0h44.8693v32.4056h-44.8693z"
  /><path d="M32.4056 26.4245h277.5156v99.7095H32.4056z" /><rect
    height="9.9709"
    rx="3"
    width="44.8693"
    x="49.8547"
    y=".5"
  /><rect height="9.9709" rx="3" width="44.8693" x="117.1586" y=".5" /><rect
    height="9.9709"
    rx="3"
    width="44.8693"
    x="181.9698"
    y=".5"
  /><rect
    height="9.9709"
    rx="3"
    width="44.8693"
    x="181.9698"
    y="143.5831"
  /><rect
    height="9.9709"
    rx="3"
    width="44.8693"
    x="117.1586"
    y="143.5831"
  /><rect
    height="9.9709"
    rx="3"
    width="44.8693"
    x="49.8547"
    y="143.5831"
  /><rect height="9.9709" rx="3" width="44.8693" x="246.1543" y=".5" /><rect
    height="9.9709"
    rx="3"
    width="44.8693"
    x="246.1543"
    y="144.1221"
  /></svg>
