<svg
  xmlns="http://www.w3.org/2000/svg"
  width="126"
  height="64"
  stroke="#000"
  stroke-linecap="round"
  stroke-linejoin="round"
  fill="#fff"
  fill-rule="evenodd"
><path d="M12.9724 10.478h49.8898v47.3953H12.9724z" /><rect
    height="54.8787"
    rx="3"
    width="12.4724"
    x=".5"
    y="7.9835"
  /><path d="M.5.5h62.3622v12.4724H.5z" /><path
    d="M62.8622 10.478h49.8898v47.3953H62.8622z"
  /><path d="M62.8622.5h62.3622v12.4724H62.8622z" /><rect
    height="54.8787"
    rx="3"
    width="12.4724"
    x="112.752"
    y="7.9835"
  /><path
    d="M106.4484 21.6675c-.0893-.1554-.1084-.3219-.0572-.4834.2306-.7218.8729-2.9757.8729-5.672s-.6423-4.9503-.8729-5.6723c-.0512-.1614-.0321-.3279.0572-.4834l.4493-.7845c.2196-.3832.011-.8074-.5207-1.0587-.5251-.2482-1.2536-.275-1.8256-.067-.4307.1565-.9601.1812-1.4259.0662-1.41-.348-5.1984-1.0256-13.3227-1.0256S77.8899 7.1644 76.48 7.5124c-.4662.115-.9954.0903-1.426-.0662-.5721-.208-1.3005-.1812-1.8256.067-.5317.2513-.7403.6755-.5209 1.0587l.4495.7845c.089.1555.1085.322.0571.4834-.2306.722-.8728 2.9759-.8728 5.6723s.6422 4.9502.8728 5.672c.0514.1615.0322.328-.0571.4834l-.4495.7847c-.2194.3832-.0108.8074.5209 1.0586.5251.2484 1.2535.2751 1.8256.067.4306-.1565.9598-.1812 1.426-.0661 1.4099.348 5.1983 1.0255 13.3228 1.0255s11.9127-.6775 13.3227-1.0255c.4661-.1151.9952-.0904 1.4259.0661.572.2081 1.3005.1814 1.8256-.067.5317-.2512.7403-.6754.521-1.0586zm-53.881 0c-.0893-.1554-.1084-.3219-.0572-.4834.2306-.7218.8729-2.9757.8729-5.672s-.6423-4.9503-.8729-5.6723c-.0512-.1614-.0321-.3279.0572-.4834l.4493-.7845c.2196-.3832.011-.8074-.5207-1.0587-.5251-.2482-1.2536-.275-1.8256-.067-.4307.1565-.9601.1812-1.4259.0662-1.41-.348-5.1984-1.0256-13.3227-1.0256s-11.9129.6776-13.3228 1.0256c-.4662.115-.9954.0903-1.426-.0662-.5721-.208-1.3005-.1812-1.8256.067-.5317.2513-.7403.6755-.5209 1.0587l.4495.7845c.089.1555.1085.322.0571.4834-.2306.722-.8728 2.9759-.8728 5.6723s.6422 4.9502.8728 5.672c.0514.1615.0322.328-.0571.4834l-.4495.7847c-.2194.3832-.0108.8074.5209 1.0586.5251.2484 1.2535.2751 1.8256.067.4306-.1565.9598-.1812 1.426-.0661 1.4099.348 5.1983 1.0255 13.3228 1.0255s11.9127-.6775 13.3227-1.0255c.4661-.1151.9952-.0904 1.4259.0661.572.2081 1.3005.1814 1.8256-.067.5317-.2512.7403-.6754.521-1.0586zm0 0"
  /></svg>
