<svg
  xmlns="http://www.w3.org/2000/svg"
  width="255"
  height="139"
  stroke="#000"
  stroke-linecap="round"
  stroke-linejoin="round"
  fill="#fff"
  fill-rule="evenodd"
><path
    d="M16.984 119.0538v-40.537c0-1.0774.9427-2.0201 2.1549-2.0201h36.9007c1.2122 0 2.1546.9427 2.1546 2.0201v40.537c-.2693 1.2121-1.0772 2.0201-2.2894 2.0201H19.0041c-1.0774 0-2.0201-.808-2.0201-2.0201z"
  /><path
    d="M55.9858 121.1682s2.0201 0 2.0201 2.0202v12.6594s-.1348 2.0201-2.0201 2.0201H2.5201S.5 137.8679.5 135.8478v-74.071s0-2.0201 2.0201-2.0201h53.4657s2.0201 0 2.0201 2.0201v12.7941s0 2.0201-2.0201 2.0201H18.9503s-1.616 0-2.0201 2.0201v40.537s.1348 2.0201 2.1549 2.0201h36.9007zM75.8501 17.1995h117.9746c1.0778.2693 2.0205 1.0775 2.0205 2.1548v37.5742c0 1.0773-.9427 2.0201-2.0205 2.0201H75.8501c-1.0774-.2693-2.0201-1.0775-2.0201-2.2895V19.2196c0-1.0774.9427-2.0201 2.0201-2.0201z"
  /><path
    d="M73.8706 56.7939s-.1345 2.0202-2.0201 2.0202H59.3257s-2.0201-.1347-2.0201-2.0202V2.5201S57.3056.5 59.3257.5h151.105s2.0201 0 2.0201 2.0201v54.2738s0 2.0202-2.0201 2.0202h-12.6596s-1.8853 0-1.8853-2.0202V19.3544s-.1345-1.7508-2.0201-2.1548H75.7559s-1.8853.1347-1.8853 2.0202v37.5741zm138.5128 75.0404V61.1304c.269-1.2122 1.0771-2.1549 2.2897-2.1549h36.9007c1.2119 0 2.1546.9427 2.1546 2.0202v70.704c-.4041 1.2121-1.212 2.0201-2.4239 2.0201h-36.901c-1.0774 0-2.0201-.808-2.0201-1.8855zM2.6681 3.4089h47.9442c.2693 0 .5389.2693.5389.5387v48.6175c0 .2692-.2696.5387-.5389.5387H2.6681c-.269 0-.5386-.2695-.5386-.5387V3.9476c0-.2694.2696-.5387.5386-.5387z"
  /><path
    d="M9.6575 28.2832c0-9.5618 7.6767-17.2383 16.9691-17.2383 9.4272 0 16.9691 7.6765 16.9691 17.2383 0 9.4273-7.5419 17.2383-16.9691 17.2383-9.2924 0-16.9691-7.811-16.9691-17.2383z"
  /><path
    d="M10.7755 28.2025c0-8.8887 7.1378-16.0263 15.8916-16.0263s15.8917 7.1376 15.8917 16.0263-7.1378 16.1608-15.8917 16.1608-15.8916-7.2724-15.8916-16.1608z"
  /><path
    d="M26.6536 26.4382V12.1627m-1.4138 14.8007l-9.9661-10.1006M28.1352 27.206l9.9661-10.1006m-11.4477 27.204V30.0339m-1.4138-.4982l-9.9661 10.1006m22.5043-.2423l-9.9661-10.1006"
  /><path
    d="M24.8897 28.2294c0-.9427.8078-1.7507 1.7508-1.7507s1.7505.808 1.7505 1.7507-.8078 1.7508-1.7505 1.7508-1.7508-.8081-1.7508-1.7508z"
  /><path
    d="M10.762 28.2698h14.1408m3.5016 0h14.1408m115.2946-2.7205s5.9259 0 11.1781-1.8854c5.1173-1.8854 9.8309-5.7909 9.8309-5.7909 1.2123-.404 2.6938.2692 3.2327 1.4813 0 0-.2696 5.5217 2.0202 11.3126 2.1545 5.791 5.6559 9.9659 5.6559 9.9659.4041 1.2122-.1345 2.6936-1.4812 3.2323 0 0-5.5218-.1347-11.1781 1.8854-5.6562 2.1548-9.8309 5.6563-9.8309 5.6563-1.2123.5388-2.6939-.1347-3.2328-1.4814 0 0 0-5.2523-2.0201-11.178-1.885-5.791-5.6559-9.9658-5.6559-9.9658-.4041-1.3468.2693-2.8282 1.4812-3.2323z"
  /><path
    d="M167.7116 19.0041s4.4443 2.0201 12.3899 2.0201c8.0805 0 12.39-2.0201 12.39-2.0201.6737 0 1.3468.5387 1.3468 1.212 0 0-2.1546 5.791-2.1546 12.6594s2.1546 12.5248 2.1546 12.5248c0 .6734-.6731 1.2121-1.3468 1.2121 0 0-4.9829-1.8854-12.2555-1.8854-7.4067 0-12.5244 1.8854-12.5244 1.8854a1.207 1.207 0 0 1-1.2123-1.2121s1.886-5.6563 1.886-12.5248c-.1348-6.7337-1.886-12.6594-1.886-12.6594a1.207 1.207 0 0 1 1.2123-1.212zM21.886 116.7104c-.9426 0-.8078-1.0773-1.4812-2.4241-.8082-1.2121-4.4443-5.9257-4.4443-15.0836 0-9.2926 4.4443-16.0263 4.4443-16.0263s.4041-2.2894 1.4812-2.2894c.9427 0 .1348.9427 1.3468 2.0201 0 0 4.5791 5.9256 4.5791 16.2956s-4.5791 15.2182-4.5791 15.2182-.5386 2.2895-1.3468 2.2895zm51.513-94.4607c0-1.0772 1.0775-.808 2.4242-1.616 1.2123-.6734 5.7911-4.4443 14.9487-4.4443 9.0234 0 15.7571 4.4443 15.7571 4.4443s2.2894.5388 2.2894 1.616c0 .9428-.9426.1348-2.0201 1.3469 0 0-5.791 4.7136-16.0264 4.7136s-15.0835-4.7136-15.0835-4.7136-2.2894-.5388-2.2894-1.3469zm41.8435 0c0-1.0772 1.0775-.808 2.4242-1.616 1.2123-.6734 5.7911-4.4443 14.949-4.4443 9.0231 0 15.7568 4.4443 15.7568 4.4443s2.2894.5388 2.2894 1.616c0 .9428-.9423.1348-2.0201 1.3469 0 0-5.7907 4.7136-16.0261 4.7136s-15.0838-4.7136-15.0838-4.7136-2.2894-.5388-2.2894-1.3469zM86.301 84.9004h93.3294c.2693 0 .5389.2693.5389.5387v41.4797c0 .2693-.2696.5388-.5389.5388H86.301c-.2693 0-.5386-.2695-.5386-.5388V85.4391c0-.2694.2693-.5387.5386-.5387z"
  /><path
    d="M89.3581 87.9576h86.865c.2693 0 .5386.2693.5386.4039v35.6887c0 .1349-.2693.4041-.5386.4041h-86.865c-.2696 0-.4041-.2692-.4041-.5387V88.3615c0-.2693.1345-.4039.4041-.4039z"
  /></svg>
