<svg
  xmlns="http://www.w3.org/2000/svg"
  width="247"
  height="142"
  stroke="#000"
  stroke-linecap="round"
  stroke-linejoin="round"
  fill="#fff"
  fill-rule="evenodd"
><rect height="47.6298" rx="3" width="50.1366" x="33.0888" y="10.5273" /><rect
    height="55.1503"
    rx="3"
    width="12.5341"
    x="20.5546"
    y="8.0205"
  /><path d="M20.5546.5h62.6707v12.5341H20.5546z" /><rect
    height="47.6298"
    rx="3"
    width="50.1366"
    x="83.2254"
    y="10.5273"
  /><path d="M83.2254.5h50.1366v12.5341H83.2254z" /><rect
    height="47.6298"
    rx="3"
    width="50.1366"
    x="183.4986"
    y="10.5273"
  /><rect
    height="55.1503"
    rx="3"
    width="12.5341"
    x="233.6352"
    y="8.0205"
  /><path
    d="M183.4986.5h62.6707v12.5341h-62.6707zM42.7391 18.8676c-.1561.0897-.3235.1089-.4858.0574-.7254-.2317-2.9904-.8772-5.7001-.8772s-4.9748.6455-5.7003.8772c-.1622.0515-.3295.0323-.4858-.0574l-.7884-.4516c-.3851-.2206-.8114-.011-1.0639.5233-.2495.5277-.2764 1.2598-.0674 1.8347.1573.4327.1822.9648.0665 1.4329-.3497 1.417-1.0306 5.2241-1.0306 13.3887s.6809 11.9717 1.0306 13.3887c.1157.4684.0908 1.0002-.0665 1.433-.209.5749-.1821 1.3069.0674 1.8346.2525.5343.6788.744 1.0639.5235l.7884-.4518c.1563-.0894.3236-.109.4858-.0573.7255.2317 2.9906.8771 5.7003.8771s4.9747-.6454 5.7001-.8771c.1623-.0517.3297-.0324.4858.0573l.7886.4518c.3851.2205.8113.0108 1.0639-.5235.2495-.5277.2764-1.2597.0673-1.8346-.1573-.4328-.1822-.9646-.0665-1.433.3497-1.417 1.0306-5.2241 1.0306-13.3887s-.6809-11.9717-1.0306-13.3887c-.1157-.4684-.0908-1.0002.0665-1.4329.2091-.5749.1822-1.307-.0673-1.8347-.2526-.5343-.6788-.7439-1.0639-.5236zm183.8339 31.043c.1383-.0795.2865-.0965.4303-.0509.6425.2053 2.6486.777 5.0486.777s4.4063-.5717 5.0489-.777c.1437-.0456.2919-.0286.4302.0509l.6983.3999c.3412.1954.7188.0098.9424-.4634.2209-.4674.2448-1.1159.0597-1.625-.1394-.3834-.1614-.8546-.059-1.2692.3098-1.255.9129-4.6271.9129-11.8585s-.6031-10.6036-.9129-11.8586c-.1024-.4149-.0804-.8859.059-1.2693.1851-.5091.1612-1.1575-.0597-1.6249-.2236-.4732-.6012-.6589-.9424-.4636l-.6983.4001c-.1383.0792-.2865.0965-.4302.0508-.6426-.2053-2.6488-.7769-5.0489-.7769s-4.4061.5716-5.0486.7769c-.1438.0457-.292.0286-.4303-.0508l-.6984-.4001c-.3411-.1953-.7187-.0096-.9423.4636-.2211.4674-.2448 1.1158-.0597 1.6249.1393.3834.1614.8544.0589 1.2693-.3097 1.255-.9127 4.6271-.9127 11.8586s.603 10.6035.9127 11.8585c.1025.4148.0804.8858-.0589 1.2692-.1851.5091-.1614 1.1576.0597 1.625.2236.4732.6012.6588.9423.4637zm0 0"
  /><rect
    height="47.6298"
    rx="3"
    width="50.1366"
    x="133.362"
    y="10.5273"
  /><path d="M133.362.5h50.1366v12.5341H133.362z" /><path
    d="M177.1637 21.7722c-.0897-.1561-.1089-.3235-.0574-.4858.2317-.7254.8772-2.9904.8772-5.7001s-.6455-4.9748-.8772-5.7003c-.0515-.1622-.0323-.3295.0574-.4858l.4516-.7884c.2206-.3851.011-.8114-.5233-1.0639-.5277-.2495-1.2598-.2764-1.8347-.0674-.4327.1573-.9648.1822-1.4329.0665-1.417-.3497-5.2241-1.0306-13.3887-1.0306s-11.9717.6809-13.3887 1.0306c-.4684.1157-1.0002.0908-1.433-.0665-.5749-.209-1.3069-.1821-1.8346.0674-.5343.2525-.744.6788-.5235 1.0639l.4518.7884c.0894.1563.109.3236.0573.4858-.2317.7255-.8771 2.9906-.8771 5.7003s.6454 4.9747.8771 5.7001c.0517.1623.0324.3297-.0573.4858l-.4518.7886c-.2205.3851-.0108.8113.5235 1.0639.5277.2495 1.2597.2764 1.8346.0673.4328-.1573.9646-.1822 1.433-.0665 1.417.3497 5.2241 1.0306 13.3887 1.0306s11.9717-.6809 13.3887-1.0306c.4684-.1157 1.0002-.0908 1.4329.0665.5749.2091 1.307.1822 1.8347-.0673.5343-.2526.7439-.6788.5236-1.0639zm6.3349 41.8999a3.002 3.002 0 0 1 3.0082-3.0082h44.1202a3.002 3.002 0 0 1 3.0082 3.0082v59.1612c0 1.6665-4.5123 15.041-24.0656 17.7985h0c-22.0601-.5014-26.071-16.132-26.071-17.7985z"
  /><circle cx="28.0751" cy="113.3073" r="27.5751" /></svg>
