<svg
  xmlns="http://www.w3.org/2000/svg"
  xmlns:xlink="http://www.w3.org/1999/xlink"
  width="259"
  height="159"
  stroke="#000"
  stroke-linecap="round"
  stroke-linejoin="round"
  fill="#fff"
  fill-rule="evenodd"
><path d="M44.3794 10.5296h50.1479v47.6405H44.3794z" /><rect
    height="55.1627"
    rx="3"
    width="12.537"
    x="31.8424"
    y="8.0222"
  /><path d="M31.8424.5h62.6848v12.537H31.8424z" /><path
    d="M94.5273 10.5296h50.1479v47.6405H94.5273z"
  /><path d="M94.5273.5h50.1479v12.537H94.5273z" /><rect
    height="100.2958"
    rx="3"
    width="50.1479"
    x="194.823"
    y="10.5296"
  /><rect height="55.1627" rx="3" width="12.537" x="244.9709" y="8.0222" /><path
    d="M194.823.5h62.6848v12.537H194.823z"
  /><use xlink:href="#B" /><use xlink:href="#B" x="-54.1597" /><path
    d="M237.9072 49.9217c.1383-.0795.2866-.0965.4303-.0509.6427.2053 2.6493.7772 5.0498.7772s4.4073-.5719 5.05-.7772c.1437-.0456.292-.0286.4304.0509l.6984.4c.3412.1955.7189.0098.9426-.4635.221-.4675.2448-1.1161.0597-1.6254-.1394-.3834-.1614-.8547-.059-1.2695.3099-1.2553.9131-4.6281.9131-11.8611s-.6032-10.606-.9131-11.8613c-.1024-.415-.0804-.8861.059-1.2695.1851-.5093.1613-1.1578-.0597-1.6253-.2237-.4734-.6014-.6591-.9426-.4638l-.6984.4002c-.1384.0793-.2867.0966-.4304.0509-.6427-.2053-2.6494-.7771-5.05-.7771s-4.4071.5718-5.0498.7771c-.1437.0457-.292.0286-.4303-.0509l-.6986-.4002c-.3412-.1953-.7188-.0096-.9425.4638-.2211.4675-.2449 1.116-.0597 1.6253.1393.3834.1614.8545.0589 1.2695-.3098 1.2553-.913 4.6281-.913 11.8613s.6032 10.6058.913 11.8611c.1025.415.0804.8861-.0589 1.2695-.1852.5093-.1614 1.1579.0597 1.6254.2237.4733.6013.659.9425.4638zm-93.232-39.3921h50.1479v47.6405h-50.1479z"
  /><path d="M144.6752.5h50.1479v12.537h-50.1479z" /><use
    xlink:href="#B"
    x="50.1478"
  /><rect
    height="47.6405"
    rx="3"
    width="50.1479"
    x="194.823"
    y="110.8253"
  /><path d="M9.5266 144.6751V99.542H52.403v45.1331z" /><rect
    height="49.6464"
    rx="3"
    width="11.2833"
    transform="matrix(0 -1 1 0 7.2699 99.542)"
  /><rect
    height="49.6464"
    rx="3"
    width="11.2833"
    transform="matrix(0 -1 1 0 7.2699 155.9584)"
  /><path d="M.5 155.9584V88.2588h11.2833v67.6996z" /><defs><path
      id="B"
      d="M138.339 21.7769c-.0898-.1561-.109-.3235-.0575-.4858.2318-.7256.8774-2.9911.8774-5.7014s-.6456-4.976-.8774-5.7016c-.0515-.1623-.0323-.3296.0575-.4859l.4516-.7886c.2207-.3852.011-.8116-.5234-1.0642-.5278-.2495-1.2601-.2764-1.8351-.0674-.4329.1574-.965.1822-1.4333.0666-1.4172-.3498-5.2252-1.0309-13.3916-1.0309s-11.9745.6811-13.3917 1.0309c-.4686.1156-1.0005.0908-1.4334-.0666-.575-.209-1.3072-.1821-1.835.0674-.5344.2526-.7441.679-.5236 1.0642l.4518.7886c.0895.1563.1091.3236.0574.4859-.2318.7256-.8773 2.9912-.8773 5.7016s.6455 4.9758.8773 5.7014c.0517.1623.0324.3297-.0574.4858l-.4518.7888c-.2205.3852-.0108.8115.5236 1.0641.5278.2496 1.26.2765 1.835.0674.4329-.1574.9648-.1822 1.4334-.0666 1.4172.3498 5.2252 1.0308 13.3917 1.0308s11.9744-.681 13.3916-1.0308c.4685-.1156 1.0004-.0908 1.4333.0666.575.2091 1.3073.1822 1.8351-.0674.5344-.2526.7441-.6789.5237-1.0641zm0 0"
    /></defs></svg>
