<svg
  xmlns="http://www.w3.org/2000/svg"
  xmlns:xlink="http://www.w3.org/1999/xlink"
  width="243"
  height="184"
  stroke="#000"
  stroke-linecap="round"
  stroke-linejoin="round"
  fill="#fff"
  fill-rule="evenodd"
><path d="M12.9685 10.4748h49.8742v47.3805H12.9685z" /><rect
    height="54.8616"
    rx="3"
    width="12.4685"
    x=".5"
    y="7.9811"
  /><path d="M.5.5h62.3427v12.4685H.5z" /><path
    d="M62.8427 10.4748h49.8742v47.3805H62.8427z"
  /><path d="M62.8427.5h49.8742v12.4685H62.8427z" /><rect
    height="54.8616"
    rx="3"
    width="12.4685"
    x="162.5911"
    y="7.9811"
  /><path d="M112.7169.5h62.3427v12.4685h-62.3427z" /><use
    xlink:href="#B"
  /><use xlink:href="#B" x="-53.8641" /><path
    d="M112.7169 10.4748h49.8742v47.3805h-49.8742z"
  /><use xlink:href="#B" x="49.8742" /><path
    d="M232.4149 72.8175v49.8742h-47.3805V72.8175z"
  /><rect
    height="54.8616"
    rx="3"
    width="12.4685"
    transform="matrix(0 1 -1 0 234.9087 60.349)"
  /><path d="M242.3898 60.349v62.3427h-12.4685V60.349z" /><rect
    height="54.8616"
    rx="3"
    width="12.4685"
    transform="matrix(0 1 -1 0 234.9087 170.0722)"
  /><path
    d="M221.229 112.4002c.1554-.0893.3218-.1085.4833-.0572.7216.2305 2.9747.8726 5.6702.8726s4.9488-.6421 5.6705-.8726c.1614-.0513.3278-.0321.4833.0572l.7842.4491c.3832.2195.8072.011 1.0584-.5205.2481-.525.2749-1.2532.067-1.8251-.1564-.4305-.1812-.9597-.0661-1.4254.3478-1.4096 1.0252-5.1968 1.0252-13.3186s-.6774-11.9091-1.0252-13.3186c-.1151-.466-.0903-.9951.0661-1.4256.2079-.5718.1811-1.3-.067-1.825-.2512-.5315-.6752-.74-1.0584-.5207l-.7842.4494c-.1555.0889-.3219.1084-.4833.057-.7217-.2305-2.9749-.8725-5.6705-.8725s-4.9486.642-5.6702.8725c-.1615.0514-.3279.0322-.4833-.057l-.7844-.4494c-.3831-.2193-.8071-.0108-1.0583.5207-.2483.525-.275 1.2532-.067 1.825.1565.4305.1812.9596.0662 1.4256-.3479 1.4095-1.0252 5.1967-1.0252 13.3186s.6773 11.909 1.0252 13.3186c.115.4659.0903.9949-.0662 1.4254-.208.5719-.1813 1.3001.067 1.8251.2512.5315.6752.74 1.0583.5208zm11.1859 7.7978v49.8742h-47.3805V120.198z"
  /><path d="M242.3898 120.198v62.3427h-12.4685V120.198z" /><path
    d="M221.2289 163.7705c.1554-.0893.3219-.1084.4833-.0572.7216.2305 2.9748.8726 5.6703.8726s4.9487-.6421 5.6705-.8726c.1612-.0512.3277-.0321.4831.0572l.7844.4491c.3831.2195.8071.011 1.0583-.5205.2482-.5249.2749-1.2532.067-1.825-.1565-.4306-.1812-.9598-.0661-1.4255.3478-1.4096 1.0252-5.1968 1.0252-13.3186s-.6774-11.9091-1.0252-13.3186c-.1151-.4661-.0904-.995.0661-1.4255.2079-.5719.1812-1.3002-.067-1.825-.2512-.5316-.6752-.7402-1.0583-.5208l-.7844.4493c-.1554.089-.3219.1085-.4831.0571-.7218-.2305-2.9749-.8725-5.6705-.8725s-4.9487.642-5.6703.8725c-.1614.0514-.3279.0322-.4833-.0571l-.7844-.4493c-.3831-.2194-.8071-.0108-1.0583.5208-.2482.5248-.275 1.2531-.067 1.825.1564.4305.1811.9594.0661 1.4255-.3478 1.4095-1.0251 5.1968-1.0251 13.3186s.6773 11.909 1.0251 13.3186c.115.4659.0903.9949-.0661 1.4255-.208.5718-.1812 1.3001.067 1.825.2512.5315.6752.74 1.0583.5208zM185.0345 5.4874h49.8742v49.8742h-49.8742z"
  /><ellipse cx="90.2735" cy="120.198" rx="64.8364" ry="39.8993" /><path
    d="M189.0244 8.4799h4.9874v4.9874h-4.9874zm0 37.9043h4.9874v4.9874h-4.9874zm35.9094 0h4.9874v4.9874h-4.9874zm0-37.9043h4.9874v4.9874h-4.9874z"
  /><defs><path
      id="B"
      d="M106.4153 21.6609c-.0893-.1554-.1085-.3218-.0572-.4833.2305-.7216.8726-2.9747.8726-5.6702s-.6421-4.9488-.8726-5.6705c-.0513-.1614-.0321-.3278.0572-.4833l.4491-.7842c.2195-.3832.011-.8072-.5205-1.0584-.525-.2481-1.2532-.2749-1.8251-.067-.4305.1564-.9597.1812-1.4254.0661-1.4096-.3478-5.1968-1.0252-13.3186-1.0252s-11.9091.6774-13.3186 1.0252c-.466.1151-.9951.0903-1.4256-.0661-.5718-.2079-1.3-.1811-1.825.067-.5315.2512-.74.6752-.5207 1.0584l.4494.7842c.0889.1555.1084.3219.057.4833-.2305.7217-.8725 2.9749-.8725 5.6705s.642 4.9486.8725 5.6702c.0514.1615.0322.3279-.057.4833l-.4494.7844c-.2193.3831-.0108.8071.5207 1.0583.525.2483 1.2532.275 1.825.067.4305-.1565.9596-.1812 1.4256-.0662 1.4095.3479 5.1967 1.0252 13.3186 1.0252s11.909-.6773 13.3186-1.0252c.4659-.115.9949-.0903 1.4254.0662.5719.208 1.3001.1813 1.8251-.067.5315-.2512.74-.6752.5208-1.0583zm0 0"
    /></defs></svg>
