<svg
  xmlns="http://www.w3.org/2000/svg"
  xmlns:xlink="http://www.w3.org/1999/xlink"
  width="81"
  height="63"
  stroke="#000"
  stroke-linecap="round"
  stroke-linejoin="round"
  fill="#fff"
  fill-rule="evenodd"
><rect height="48.6142" rx="3" width="14.3858" x="65.4843" y="9.429" /><rect
    height="52.5827"
    rx="5"
    width="56.5512"
    x="12.4055"
    y="9.429"
  /><rect height="48.6142" rx="3" width="15.378" x=".5" y="9.429" /><path
    d="M63.0195 20.5255c-.1177-.205-.143-.4247-.0754-.6377.3042-.9522 1.1515-3.9253 1.1515-7.4822s-.8473-6.5302-1.1515-7.4825c-.0676-.2129-.0423-.4326.0754-.6376l.5927-1.0349c.2896-.5056.0145-1.0652-.6868-1.3966-.6927-.3274-1.6537-.3628-2.4083-.0884-.5681.2064-1.2665.2391-1.881.0873C56.7762 1.3938 51.7787.5 41.0616.5s-15.7147.8938-17.5746 1.3529c-.6149.1518-1.313.1191-1.8811-.0873-.7546-.2744-1.7155-.239-2.4082.0884-.7013.3314-.9765.891-.6871 1.3966l.593 1.0349c.1173.205.143.4247.0753.6376-.3042.9523-1.1514 3.9255-1.1514 7.4825s.8472 6.53 1.1514 7.4822c.0677.213.0424.4327-.0753.6377l-.593 1.0351c-.2894.5054-.0142 1.065.6871 1.3965.6927.3276 1.6536.3628 2.4082.0884.5681-.2065 1.2662-.2391 1.8811-.0873 1.8599.459 6.8573 1.3527 17.5746 1.3527s15.7146-.8937 17.5745-1.3527c.6148-.1518 1.3129-.1192 1.881.0873.7546.2744 1.7156.2392 2.4083-.0884.7013-.3315.9764-.8911.6872-1.3965zm0 0"
  /><use xlink:href="#B" /><use xlink:href="#B" x="51.5905" /><defs><path
      id="B"
      d="M19.1265 24.8528c-.1196.0687-.2477.0835-.372.044-.5555-.1774-2.2898-.6717-4.3646-.6717s-3.8093.4943-4.3648.6717c-.1242.0395-.2524.0247-.372-.044l-.6037-.3457c-.2949-.1689-.6213-.0084-.8147.4007-.191.404-.2116.9646-.0516 1.4048.1205.3314.1395.7388.051 1.0972-.2678 1.085-.7892 4.0002-.7892 10.2519s.5214 9.1669.7892 10.2519c.0885.3587.0695.7659-.051 1.0973-.16.4402-.1394 1.0007.0516 1.4048.1934.4091.5198.5696.8147.4008l.6037-.3459c.1196-.0685.2478-.0835.372-.0439.5555.1774 2.2899.6716 4.3648.6716s3.8091-.4942 4.3646-.6716c.1243-.0396.2524-.0248.372.0439l.6038.3459c.2948.1688.6213.0083.8146-.4008.1911-.4041.2117-.9646.0516-1.4048-.1205-.3314-.1395-.7386-.051-1.0973.2678-1.085.7892-4.0002.7892-10.2519s-.5214-9.1669-.7892-10.2519c-.0885-.3586-.0695-.7658.051-1.0972.1601-.4402.1395-1.0008-.0516-1.4048-.1933-.4091-.5198-.5696-.8146-.4009zm0 0"
    /></defs></svg>
